<svg width="934" height="934" viewBox="0 0 934 934" fill="none" xmlns="http://www.w3.org/2000/svg">
<path d="M799.533 467.267C799.533 283.773 650.773 135 467.267 135C283.76 135 135 283.76 135 467.267C135 650.773 283.76 799.533 467.267 799.533C650.76 799.533 799.533 650.773 799.533 467.267V467.267ZM451.747 681.307L272.84 371.44C271.236 368.669 270.434 365.581 270.434 362.487C270.434 359.388 271.231 356.3 272.84 353.518C276.043 347.977 281.955 344.565 288.356 344.565L646.156 344.565C652.557 344.565 658.469 347.977 661.677 353.518C663.276 356.294 664.068 359.388 664.068 362.477C664.068 365.576 663.276 368.664 661.677 371.435L482.771 681.302C479.568 686.843 473.656 690.271 467.255 690.271C460.853 690.271 454.942 686.843 451.739 681.307L451.747 681.307Z" fill="black"/>
</svg>
