<svg width="934" height="934" viewBox="0 0 934 934" fill="none" xmlns="http://www.w3.org/2000/svg">
<path d="M135 467.267C135 650.76 283.76 799.533 467.267 799.533C650.773 799.533 799.533 650.773 799.533 467.267C799.533 283.76 650.773 135 467.267 135C283.773 135 135 283.76 135 467.267V467.267ZM482.787 253.227L661.693 563.093C663.298 565.864 664.1 568.953 664.1 572.046C664.1 575.145 663.303 578.234 661.693 581.015C658.49 586.557 652.579 589.968 646.177 589.968H288.377C281.976 589.968 276.065 586.557 272.856 581.015C271.257 578.239 270.465 575.145 270.465 572.057C270.465 568.958 271.257 565.869 272.856 563.098L451.763 253.232C454.966 247.69 460.877 244.263 467.279 244.263C473.68 244.263 479.591 247.69 482.795 253.227L482.787 253.227Z" fill="black"/>
</svg>
